<svg width="22" height="22" viewBox="0 0 22 22" fill="none" xmlns="http://www.w3.org/2000/svg">
<path d="M20.0168 16.046L20.8704 16.8995V15.6924V10.9458V10.7386L20.7239 10.5922L17.4253 7.29393L17.0718 6.94041L16.7182 7.29394L14.3451 9.66709L13.9915 10.0206L14.3451 10.3742L20.0168 16.046ZM1.62963 1.12963H1.12963V1.62963V10.5998V11.8069L1.98318 10.9534L8.4537 4.48286L13.1927 9.2219L13.5463 9.57545L13.8999 9.22189L17.0719 6.04975L20.0168 8.99466L20.8704 9.84823V8.64111V1.62963V1.12963H20.3704H1.62963ZM1.27608 12.5511L1.12963 12.6975V12.9046V20.3704V20.8704H1.62963H20.3704H20.8704V20.3704V17.9972V17.7901L20.7239 17.6437L8.80726 5.727L8.4537 5.37345L8.10015 5.727L1.27608 12.5511ZM21.5 0.5V21.5H0.5V0.5H21.5Z" fill="#333333" stroke="#333333"/>
</svg>
