<svg width="20" height="22" viewBox="0 0 20 22" fill="none" xmlns="http://www.w3.org/2000/svg">
<path d="M18.7979 17.3883C18.3189 16.2538 17.6239 15.2232 16.7514 14.3541C15.8816 13.4825 14.8513 12.7875 13.7173 12.3076C13.7071 12.3025 13.6969 12.3 13.6868 12.2949C15.2686 11.1523 16.2969 9.29121 16.2969 7.19141C16.2969 3.71289 13.4786 0.894531 10.0001 0.894531C6.52155 0.894531 3.70319 3.71289 3.70319 7.19141C3.70319 9.29121 4.73151 11.1523 6.31334 12.2975C6.30319 12.3025 6.29303 12.3051 6.28288 12.3102C5.14538 12.79 4.12467 13.4781 3.2487 14.3566C2.37706 15.2264 1.68211 16.2568 1.20221 17.3908C0.730764 18.501 0.476502 19.6913 0.453188 20.8973C0.452511 20.9244 0.457264 20.9513 0.467168 20.9766C0.477072 21.0018 0.491927 21.0248 0.510857 21.0442C0.529787 21.0636 0.552409 21.079 0.57739 21.0895C0.602371 21.1001 0.629206 21.1055 0.656314 21.1055H2.17975C2.29147 21.1055 2.38034 21.0166 2.38288 20.9074C2.43366 18.9473 3.22077 17.1115 4.61217 15.7201C6.05182 14.2805 7.96374 13.4883 10.0001 13.4883C12.0364 13.4883 13.9483 14.2805 15.388 15.7201C16.7794 17.1115 17.5665 18.9473 17.6173 20.9074C17.6198 21.0191 17.7087 21.1055 17.8204 21.1055H19.3438C19.3709 21.1055 19.3978 21.1001 19.4227 21.0895C19.4477 21.079 19.4703 21.0636 19.4893 21.0442C19.5082 21.0248 19.5231 21.0018 19.533 20.9766C19.5429 20.9513 19.5476 20.9244 19.5469 20.8973C19.5215 19.6836 19.2702 18.5029 18.7979 17.3883ZM10.0001 11.5586C8.83463 11.5586 7.73776 11.1041 6.91256 10.2789C6.08737 9.45371 5.63288 8.35684 5.63288 7.19141C5.63288 6.02598 6.08737 4.9291 6.91256 4.10391C7.73776 3.27871 8.83463 2.82422 10.0001 2.82422C11.1655 2.82422 12.2624 3.27871 13.0876 4.10391C13.9128 4.9291 14.3673 6.02598 14.3673 7.19141C14.3673 8.35684 13.9128 9.45371 13.0876 10.2789C12.2624 11.1041 11.1655 11.5586 10.0001 11.5586Z" fill="black"/>
</svg>
